<svg xmlns="http://www.w3.org/2000/svg" width="25.867" height="19.235" viewBox="0 0 25.867 19.235">
  <path id="icon" d="M10.961,19.235a.82.82,0,0,1-.82-.82v-.726a.778.778,0,0,1,.008-.113c.021-3.884,3.538-7.038,7.859-7.038s7.859,3.172,7.859,7.072c0,.086,0,.172-.005.258h0v.546a.82.82,0,0,1-.821.82Zm-2.946,0H.82a.821.821,0,0,1-.82-.82v-.8c0-3.9,3.533-7.071,7.875-7.071a8.631,8.631,0,0,1,2.625.4,9.93,9.93,0,0,0-2.609,6.71,10.1,10.1,0,0,0,.125,1.58h0ZM14.69,3.57A3.477,3.477,0,0,1,18.065,0,3.477,3.477,0,0,1,21.44,3.57a3.477,3.477,0,0,1-3.375,3.57A3.477,3.477,0,0,1,14.69,3.57Zm-10.117,0A3.492,3.492,0,0,1,7.971,0a3.492,3.492,0,0,1,3.4,3.57,3.492,3.492,0,0,1-3.4,3.57A3.492,3.492,0,0,1,4.573,3.57Z" fill="rgba(255,255,255,0.5)"/>
</svg>
