<svg xmlns="http://www.w3.org/2000/svg" width="17.982" height="22.012" viewBox="0 0 17.982 22.012">
  <path id="apple" d="M1101.028,654.69a4.98,4.98,0,0,1,2.384-4.191,5.162,5.162,0,0,0-4.038-2.182c-1.72-.174-3.356,1.009-4.228,1.009s-2.217-.983-3.644-.958a5.4,5.4,0,0,0-4.568,2.76c-1.948,3.369-.5,8.359,1.4,11.09.927,1.337,2.033,2.839,3.485,2.785,1.4-.056,1.927-.9,3.618-.9s2.166.9,3.646.874c1.5-.028,2.458-1.363,3.379-2.7a12.1,12.1,0,0,0,1.53-3.13A4.865,4.865,0,0,1,1101.028,654.69Zm-2.78-8.181a4.84,4.84,0,0,0,1.149-3.515,4.958,4.958,0,0,0-3.253,1.667,4.607,4.607,0,0,0-1.172,3.406A4.1,4.1,0,0,0,1098.248,646.509Z" transform="translate(-1086.01 -642.994)" fill="#fff"/>
</svg>
