<svg id="Message_Icon" data-name="Message Icon" xmlns="http://www.w3.org/2000/svg" width="24" height="24" viewBox="0 0 24 24">
  <rect id="bound" width="24" height="24" fill="none"/>
  <path id="Combined_Shape" data-name="Combined Shape" d="M19.018,17.588a.987.987,0,0,1-.7-.3L16.025,15H3a3,3,0,0,1-3-3V3A3,3,0,0,1,3,0H17a3,3,0,0,1,3,3v9.01l.025-.01v4.586A1,1,0,0,1,19.018,17.588ZM5,6a1,1,0,0,0-.831,1.555A6.842,6.842,0,0,0,10,11a6.842,6.842,0,0,0,5.832-3.445,1,1,0,0,0-1.664-1.11A4.9,4.9,0,0,1,10,9,4.9,4.9,0,0,1,5.832,6.445,1,1,0,0,0,5,6Z" transform="translate(2 3)" fill="#fff"/>
</svg>
