<svg xmlns="http://www.w3.org/2000/svg" width="15.62" height="14.071" viewBox="0 0 15.62 14.071">
  <g id="Icon" transform="translate(-54.214 -92.362)">
    <path id="Path_17" data-name="Path 17" d="M71.164,97.59l.191.456.159.487.133.487.1.506.051.519.019.525-.019.576-.07.557-.108.551-.153.538-.184.513-.235.494-.254.475-.3.456-.33.424-.356.405-.394.38-.407.348-.445.316-.464.279-.489.253-.508.209-.521.177-.54.139-.553.089.432.165.445.133.47.1.477.057.489.013.489-.013.477-.063.47-.095.445-.133.438-.171.419-.19.394-.234,2.682.715-.731-2.722.2-.38.178-.392.14-.411.121-.418.083-.437.051-.443.025-.456-.025-.487-.057-.481-.1-.468-.133-.456-.172-.43-.2-.418-.235-.4-.261-.38-.3-.354-.318-.329-.343-.31-.369-.272Z" transform="translate(-3.847 -1.785)" fill="#fff" fill-rule="evenodd"/>
    <path id="Path_18" data-name="Path 18" d="M60.677,92.362l-.527.019-.521.07-.5.095-.483.139-.477.177-.458.215-.432.247-.413.272-.394.31-.362.335-.337.361L55.466,95l-.28.405-.248.43-.21.456-.178.468-.146.487-.1.5-.064.519-.025.525.025.494.057.494.1.481.121.456.165.456.191.43.222.418L54.29,105l2.942-.785.438.253.458.222.483.184.489.139.515.114.527.063.534.019.54-.019.508-.063.508-.1.489-.146.47-.171.458-.215.432-.247.413-.279.388-.3.369-.335.337-.361.311-.386.273-.411.254-.43.21-.456.178-.475.14-.481.108-.5.057-.519.019-.525-.019-.525-.057-.519-.108-.5-.14-.487-.178-.468-.21-.456-.254-.43L65.9,95l-.311-.392-.337-.361-.369-.335L64.5,93.6l-.413-.272-.432-.247-.458-.215-.47-.177-.489-.139-.508-.095-.508-.07-.54-.019Z" fill="#fff" fill-rule="evenodd"/>
  </g>
</svg>
