<svg id="Group_42" data-name="Group 42" xmlns="http://www.w3.org/2000/svg" width="15.5" height="15.5" viewBox="0 0 15.5 15.5">
  <path id="Frames-24px" d="M0,0H15.5V15.5H0Z" fill="none"/>
  <g id="Solid" transform="translate(1.292 1.292)">
    <path id="Path_306" data-name="Path 306" d="M8.458,14.915a6.458,6.458,0,1,1,6.458-6.458,6.466,6.466,0,0,1-6.458,6.458Zm0-11.624a5.166,5.166,0,1,0,5.167,5.165A5.172,5.172,0,0,0,8.458,3.292Z" transform="translate(-2 -2)" fill="#fff"/>
    <path id="Path_307" data-name="Path 307" d="M9.875,14.1a.647.647,0,0,1-.333-.092C9.18,13.794,6,11.82,6,9.582A2.445,2.445,0,0,1,8.583,7a1.927,1.927,0,0,1,1.292.546A1.927,1.927,0,0,1,11.167,7,2.445,2.445,0,0,1,13.75,9.582c0,2.239-3.18,4.211-3.542,4.429a.647.647,0,0,1-.333.092ZM8.583,8.292a1.184,1.184,0,0,0-1.292,1.29c0,1.123,1.665,2.484,2.583,3.108.918-.623,2.583-1.985,2.583-3.108a1.184,1.184,0,0,0-1.292-1.29.755.755,0,0,0-.646.645.646.646,0,0,1-1.292,0A.755.755,0,0,0,8.583,8.292Z" transform="translate(-3.417 -3.771)" fill="#fff"/>
  </g>
</svg>
