<svg xmlns="http://www.w3.org/2000/svg" width="26.855" height="21.007" viewBox="0 0 26.855 21.007">
  <g id="Group_24" data-name="Group 24" transform="translate(-1.002 -6.451)">
    <path id="Path_293" data-name="Path 293" d="M22.435,15.23V10.6a1.8,1.8,0,0,0-1.793-1.793H17.754V6.988a.537.537,0,1,0-1.074,0V8.812H14.087V6.988a.537.537,0,0,0-1.074,0V8.812H10.42V6.988a.537.537,0,0,0-1.074,0V8.812H6.754V6.988a.537.537,0,0,0-1.074,0V8.812H2.789A1.792,1.792,0,0,0,1,10.6V25.66a1.792,1.792,0,0,0,1.787,1.793H20.643a1.8,1.8,0,0,0,1.045-.344c.07,0,.139.006.21.006a5.954,5.954,0,0,0,.537-11.885ZM2.077,10.6a.708.708,0,0,1,.713-.718h2.89v1.823a.537.537,0,1,0,1.074,0V9.887H9.346v1.823a.537.537,0,1,0,1.074,0V9.887h2.593v1.823a.537.537,0,1,0,1.074,0V9.887H16.68v1.823a.537.537,0,1,0,1.074,0V9.887h2.888a.719.719,0,0,1,.718.718v2.739H2.077Zm.713,15.773a.716.716,0,0,1-.713-.718V14.419H21.361v.808a5.956,5.956,0,0,0-2.329,11.152H2.789ZM21.9,26.04c-.121,0-.242-.005-.345-.01a4.916,4.916,0,1,1,.345.01Z" transform="translate(0 0)" fill="#fff"/>
    <path id="Path_294" data-name="Path 294" d="M31.024,26.3l-3.592,3.256L26.07,27.814a.537.537,0,0,0-.846.663l1.717,2.192a.537.537,0,0,0,.377.2l.046,0a.537.537,0,0,0,.361-.139l4.02-3.643a.537.537,0,0,0-.721-.8Z" transform="translate(-6.617 -7.359)" fill="#fff"/>
    <text id="_5" data-name="5" transform="translate(12.002 24.458)" fill="#fff" font-size="11" font-family="Roboto-Regular, Roboto"><tspan x="-6.177" y="0">5</tspan></text>
  </g>
</svg>
