<svg xmlns="http://www.w3.org/2000/svg" width="23" height="20.08" viewBox="0 0 23 20.08">
  <path id="Path_295" data-name="Path 295" d="M17.1,2.408h1.73A4.168,4.168,0,0,1,22.99,6.566v9.356a4.168,4.168,0,0,1-4.158,4.158H4.148A4.169,4.169,0,0,1-.01,15.922V6.566A4.168,4.168,0,0,1,4.148,2.408h1.73a3.257,3.257,0,0,1,.876-1.372A3.611,3.611,0,0,1,9.049,0h4.882a3.611,3.611,0,0,1,2.3,1.035A3.26,3.26,0,0,1,17.1,2.408ZM11.49,6.176A5.068,5.068,0,1,1,7.907,7.661,5.053,5.053,0,0,1,11.49,6.176Zm2.481,2.587A3.51,3.51,0,1,0,15,11.244,3.5,3.5,0,0,0,13.971,8.763Zm4.861-4.8H16.441a.78.78,0,0,1-.78-.78,1.482,1.482,0,0,0-.513-1.031,1.98,1.98,0,0,0-1.217-.6H9.049a1.98,1.98,0,0,0-1.217.6,1.482,1.482,0,0,0-.513,1.031.78.78,0,0,1-.78.78H4.148a2.608,2.608,0,0,0-2.6,2.6v9.356a2.608,2.608,0,0,0,2.6,2.6H18.832a2.608,2.608,0,0,0,2.6-2.6V6.566a2.608,2.608,0,0,0-2.6-2.6Z" transform="translate(0.01 0)" fill="#ebb1bb"/>
</svg>
