<svg xmlns="http://www.w3.org/2000/svg" width="34.391" height="20.947" viewBox="0 0 34.391 20.947">
  <g id="Icon" transform="translate(-170.678 -93.279)" opacity="0.7">
    <path id="Path_13" data-name="Path 13" d="M187.741,93.779h.317l.139.01.169.02.178.03.188.03.208.051.208.071.228.081.228.111.228.122.218.152.218.182.208.193.208.233.188.263.169.294.149.324.119.375.1.405.079.446.04.5v.071l.01.1.01.132v.162l.01.193v.2l-.01.233-.01.253-.02.274-.03.274-.04.3-.05.294-.059.3-.079.3-.1.3-.109.3-.129.294-.159.284-.169.274-.208.253-.218.233-.248.213-.268.2-.307.162-.327.132-.367.091-.4.071-.426.02h-.059l-.426-.02-.407-.061-.357-.1-.327-.132-.307-.162-.278-.2-.248-.213-.218-.233-.2-.253-.178-.274-.149-.274-.129-.294-.109-.314-.1-.294-.079-.3-.059-.3-.059-.3-.04-.294-.02-.284-.02-.263-.02-.253v-.638l.01-.152.01-.142v-.091l.01-.061v-.02l.04-.5.069-.446.1-.405.129-.375.149-.324.169-.294.188-.263.208-.233.208-.193.218-.182.218-.152.228-.122.228-.111.228-.081.208-.071.208-.051.188-.03.178-.03.169-.02.139-.01h.2Z" fill="none" stroke="#fff" stroke-miterlimit="10" stroke-width="1" fill-rule="evenodd"/>
    <path id="Path_14" data-name="Path 14" d="M198.013,97.682l.05.01h.239l.139.01.149.02.159.031.179.041.189.051.189.071.209.1.2.112.2.132.189.163.179.183.179.214.159.244.139.275.119.326.09.346.07.4.04.428v.081l.01.092.01.122v.56l-.01.224-.02.244-.03.244-.03.265-.05.275-.07.285-.08.275-.09.265-.129.265-.129.254-.159.244-.179.234-.2.214-.229.183-.269.153-.289.132-.318.1-.348.061-.388.02h-.04l-.388-.02-.348-.061-.318-.1-.289-.132-.259-.153-.229-.183-.209-.214-.179-.234-.159-.244-.139-.254-.109-.265-.1-.265-.08-.275-.06-.285-.05-.265-.05-.265-.02-.254-.02-.244-.01-.224v-.55l.01-.132v-.092l.01-.061v-.02l.05-.428.06-.4.1-.346.119-.326.139-.275.149-.244.169-.214.189-.183.2-.163.2-.132.2-.112.2-.1.189-.071.189-.051.189-.041.159-.031.149-.02.129-.01.109-.01Z" fill="none" stroke="#fff" stroke-miterlimit="10" stroke-width="1" fill-rule="evenodd"/>
    <path id="Path_15" data-name="Path 15" d="M187.872,104.476h.14l.08.01.1.02.1.02.1.03.12.061.1.051.09.061.08.091.07.091.05.121.04.131v.162l-.02.172-.05.2-.08.222-.12.253-.171.293-.211.313.883,2.528,1.525-4.833.03.02.07.03.11.071.161.081.181.091.221.121.251.131.291.142.291.162.311.172.331.182.341.192.331.2.351.212.351.212.241.172.231.172.251-.131.231-.121.191-.1.161-.081.12-.051.07-.04.03-.01,1.224,3.882.712-2.032-.181-.283-.14-.253-.1-.212-.08-.2-.03-.162v-.152l.02-.121.05-.111.07-.091.07-.071.09-.061.09-.04.09-.03.09-.03.09-.01.08-.01.06-.01h.11l.07.01.08.01.08.01.11.03.09.03.09.04.09.061.07.071.06.091.05.111.02.121v.152l-.04.162-.06.2-.1.212-.14.253-.191.283.712,2.042,1.224-3.892.02.01.07.04.1.051.15.071.181.091.2.1.221.121.251.131.271.142.271.152.291.172.291.162.3.182.3.182.311.233.251.222.221.233.161.243.12.253.08.273.06.293.03.3.02.334.01,3.427H171.178v-3.437l.02-.324.03-.3.06-.3.08-.263.12-.263.161-.243.211-.233.261-.222.311-.233.291-.182.311-.172.291-.172.291-.162.271-.162.271-.142.251-.131.221-.121.2-.1.181-.091.15-.071.1-.051.07-.03.02-.01,1.224,3.882.7-2.032-.181-.283-.14-.253-.1-.212-.07-.2-.03-.162v-.152l.02-.121.05-.111.06-.091.07-.071.09-.061.09-.04.09-.03.11-.03.08-.01.08-.01.06-.01h.12l.06.01.08.01.09.01.09.03.09.03.09.04.09.061.07.071.06.091.06.111.02.121v.152l-.03.162-.08.2-.1.212-.14.253-.181.283.712,2.032,1.224-3.882.03.01.07.04.12.061.161.081.2.1.231.111.261.142.221-.182.251-.172.351-.212.351-.212.331-.2.341-.192.331-.182.311-.172.291-.162.291-.142.251-.131.221-.121.181-.091.161-.081.11-.071.07-.03.03-.02,1.525,4.833.883-2.528-.211-.313-.171-.293-.12-.253-.08-.222-.05-.2-.02-.182v-.152l.04-.142.05-.111.07-.1.08-.081.09-.071.1-.051.12-.051.1-.03.1-.02.1-.02.08-.01h.13Z" fill="none" stroke="#fff" stroke-miterlimit="10" stroke-width="1" fill-rule="evenodd"/>
    <path id="Path_16" data-name="Path 16" d="M177.488,97.682l.05.01h.239l.129.01.149.02.159.031.189.041.189.051.189.071.2.1.2.112.2.132.2.163.179.183.179.214.149.244.139.275.119.326.09.346.07.4.04.428v.081l.02.092.01.122v.56l-.01.224-.03.244-.02.244-.04.265-.05.275-.06.285-.08.275-.1.265-.109.265-.139.254-.159.244-.179.234-.209.214-.229.183-.259.153-.289.132-.318.1-.358.061-.378.02h-.04l-.388-.02-.348-.061-.318-.1-.289-.132-.269-.153-.229-.183-.2-.214-.179-.234-.159-.244-.139-.254-.119-.265-.09-.265-.08-.275-.07-.285-.05-.265-.03-.265-.03-.254-.02-.244-.01-.224v-.55l.01-.132.01-.092v-.081l.04-.428.07-.4.09-.346.119-.326.139-.275.159-.244.179-.214.179-.183.189-.163.2-.132.2-.112.209-.1.189-.071.189-.051.179-.041.159-.031.149-.02.139-.01.109-.01Z" fill="none" stroke="#fff" stroke-miterlimit="10" stroke-width="1" fill-rule="evenodd"/>
  </g>
</svg>
