<svg xmlns="http://www.w3.org/2000/svg" width="21.071" height="23.833" viewBox="0 0 21.071 23.833">
  <path id="icon" d="M417.419,612.551l-2.255-2.239,4.863-4.824,2.255,2.238a1.216,1.216,0,0,1-.034,1.752l-1.081,1.072-.986-.978a.641.641,0,0,0-.9,0,.629.629,0,0,0,0,.894l.986.978-1.082,1.072a1.3,1.3,0,0,1-.917.388A1.2,1.2,0,0,1,417.419,612.551Zm-5.137-2.954a1.256,1.256,0,0,1,0-1.787l9.845-9.769c.021-.02.077,0,.1-.022l-.544-.539a4.906,4.906,0,0,1,0-6.969,5,5,0,0,1,7.024,0l2.822,2.8a4.906,4.906,0,0,1,0,6.97,5,5,0,0,1-7.024,0l-.482-.48c-.019.022-.072.008-.093.028l-9.845,9.769a1.281,1.281,0,0,1-1.8,0Zm11.2-17.3a2.39,2.39,0,0,0,0,3.395l2.821,2.8a2.437,2.437,0,0,0,3.423,0,2.39,2.39,0,0,0,0-3.395l-2.822-2.8a2.435,2.435,0,0,0-3.421,0Z" transform="translate(-411.909 -589.07)" fill="#d46a92"/>
</svg>
