<svg xmlns="http://www.w3.org/2000/svg" width="26.533" height="21.612" viewBox="0 0 26.533 21.612">
  <path id="icon" d="M0,10.806C0,4.848,4.426,0,9.866,0a9.659,9.659,0,0,1,8.193,4.785,1.4,1.4,0,0,1-.328,1.834,1.143,1.143,0,0,1-1.674-.36A7.3,7.3,0,0,0,9.866,2.642c-4.11,0-7.453,3.662-7.453,8.164S5.756,18.97,9.866,18.97a7.3,7.3,0,0,0,6.181-3.6,1.144,1.144,0,0,1,1.675-.356,1.4,1.4,0,0,1,.324,1.835,9.658,9.658,0,0,1-8.18,4.763C4.426,21.612,0,16.764,0,10.806Zm20.857,4.9a1.412,1.412,0,0,1,0-1.868l1.559-1.708H8.443a1.267,1.267,0,0,1-1.206-1.321A1.267,1.267,0,0,1,8.443,9.485H22.416L20.857,7.777a1.41,1.41,0,0,1,0-1.868,1.134,1.134,0,0,1,1.706,0L26.18,9.872c.027.03.054.063.08.1l.017.025c.019.026.037.051.054.079.005.008.009.016.014.024.017.029.033.058.047.087a.133.133,0,0,1,.008.018c.015.033.03.065.043.1l0,.012c.013.036.025.072.035.108,0,0,0,.01,0,.015a1.127,1.127,0,0,1,.025.11c0,.011,0,.023.005.034,0,.031.009.062.012.094s.006.087.006.131,0,.089-.006.132-.008.064-.012.095c0,.011,0,.022-.005.033-.007.038-.015.075-.025.112,0,0,0,.009,0,.013-.01.037-.022.074-.035.11l0,.012c-.012.034-.027.067-.043.1l-.008.018c-.014.03-.031.058-.048.087l-.013.023c-.017.027-.035.053-.054.079l-.017.026c-.025.033-.052.065-.08.1L22.563,15.7a1.133,1.133,0,0,1-1.706,0Z" fill="rgba(255,255,255,0.5)"/>
</svg>
