<svg xmlns="http://www.w3.org/2000/svg" width="16.412" height="15.248" viewBox="0 0 16.412 15.248">
  <path id="Icons" d="M50.546,659H38.454a1.713,1.713,0,0,1-1.727-1.694v-11.86a1.713,1.713,0,0,1,1.727-1.694H50.546a1.713,1.713,0,0,1,1.727,1.694v.848H44.5a1.713,1.713,0,0,0-1.727,1.694v6.777a1.713,1.713,0,0,0,1.727,1.694h7.773v.848A1.713,1.713,0,0,1,50.546,659Zm2.594-4.23H44.5v-6.78h8.64v6.779Zm-5.189-4.66a1.271,1.271,0,1,0,1.3,1.271A1.287,1.287,0,0,0,47.95,650.11Z" transform="translate(-36.727 -643.752)" fill="#fff"/>
</svg>
