<svg xmlns="http://www.w3.org/2000/svg" width="377" height="816" viewBox="0 0 377 816">
  <path id="Shape_28" data-name="Shape 28" d="M1.311,792.045l-2.311,4v-2.01l1.44-2.494a26.884,26.884,0,0,1,5.117-6.325c2.436-2.357,4.045-3.915,4.046-9.4s-1.608-7.043-4.043-9.4a26.888,26.888,0,0,1-5.115-6.322L-1,757.589v-2.01l2.316,4.01a25.663,25.663,0,0,0,4.943,6.1c2.43,2.351,4.35,4.209,4.35,10.122s-1.921,7.773-4.353,10.127A25.663,25.663,0,0,0,1.311,792.045ZM368.744,469.835c-2.431,2.353-4.351,4.212-4.352,10.127s1.918,7.77,4.349,10.122a25.658,25.658,0,0,1,4.943,6.1L376,500.2v-2.008l-1.446-2.5a26.871,26.871,0,0,0-5.114-6.322c-2.436-2.356-4.044-3.913-4.043-9.4s1.61-7.047,4.047-9.405a26.868,26.868,0,0,0,5.116-6.324L376,461.74v-2.008l-2.31,4A25.666,25.666,0,0,1,368.744,469.835Zm0-295.85c-2.431,2.353-4.351,4.211-4.352,10.127s1.918,7.77,4.349,10.121a25.66,25.66,0,0,1,4.943,6.1L376,204.345v-2.008l-1.446-2.5a26.87,26.87,0,0,0-5.114-6.322c-2.436-2.356-4.044-3.913-4.043-9.4s1.61-7.047,4.047-9.406a26.871,26.871,0,0,0,5.116-6.324l1.44-2.493v-2.009l-2.31,4A25.665,25.665,0,0,1,368.744,173.985Zm0,147.925c-2.431,2.353-4.351,4.211-4.352,10.127s1.918,7.77,4.349,10.122a25.663,25.663,0,0,1,4.943,6.1L376,352.271v-2.008l-1.446-2.5a26.853,26.853,0,0,0-5.114-6.322c-2.436-2.357-4.044-3.914-4.043-9.4s1.61-7.047,4.046-9.4a26.852,26.852,0,0,0,5.117-6.325l1.44-2.493v-2.009l-2.31,4A25.692,25.692,0,0,1,368.744,321.911Zm0,295.85c-2.431,2.353-4.351,4.211-4.352,10.127s1.918,7.771,4.349,10.122a25.683,25.683,0,0,1,4.943,6.1L376,648.121v-2.008l-1.446-2.5a26.886,26.886,0,0,0-5.114-6.322c-2.436-2.356-4.044-3.913-4.043-9.4s1.61-7.047,4.046-9.4a26.851,26.851,0,0,0,5.117-6.325l1.44-2.493v-2.009l-2.31,4A25.651,25.651,0,0,1,368.744,617.761Zm0-591.7c-2.431,2.353-4.351,4.212-4.352,10.127s1.918,7.77,4.349,10.122a25.664,25.664,0,0,1,4.943,6.1L376,56.42V54.412l-1.446-2.5a26.835,26.835,0,0,0-5.114-6.321c-2.435-2.357-4.044-3.913-4.043-9.4s1.61-7.047,4.046-9.4a26.84,26.84,0,0,0,5.117-6.325L376,17.964V15.956l-2.31,4A25.689,25.689,0,0,1,368.744,26.06Zm.7,740.348a26.849,26.849,0,0,0,5.117-6.325L376,757.59v-2.009l-2.31,4a25.655,25.655,0,0,1-4.946,6.105c-2.431,2.353-4.351,4.211-4.352,10.127s1.918,7.771,4.349,10.122a25.683,25.683,0,0,1,4.943,6.1L376,796.046v-2.008l-1.446-2.5a26.889,26.889,0,0,0-5.114-6.322c-2.436-2.356-4.044-3.913-4.043-9.4S367.007,768.766,369.443,766.408ZM6.257,194.239c2.431-2.353,4.352-4.212,4.353-10.127s-1.919-7.77-4.35-10.122a25.641,25.641,0,0,1-4.943-6.1L-1,163.878v2.01l1.445,2.5a26.851,26.851,0,0,0,5.115,6.322C8,177.069,9.6,178.626,9.6,184.113s-1.61,7.047-4.046,9.4a26.893,26.893,0,0,0-5.117,6.325L-1,202.336v2.01l2.311-4A25.664,25.664,0,0,1,6.257,194.239ZM324.929,792.045,312.249,814h-1.16l12.971-22.458a26.875,26.875,0,0,1,5.116-6.325c2.437-2.357,4.046-3.915,4.047-9.4s-1.608-7.043-4.044-9.4a26.871,26.871,0,0,1-5.114-6.322l-18.458-31.956a69.9,69.9,0,0,0-4.113-6.34,35.29,35.29,0,0,1-5.151-9.714c-.306-.8-.557-1.535-.786-2.241a25.459,25.459,0,0,1-1.181,2.3l-27.688,47.938a26.845,26.845,0,0,1-5.117,6.325c-2.436,2.357-4.045,3.915-4.046,9.4s1.608,7.043,4.043,9.4a26.863,26.863,0,0,1,5.115,6.322L279.658,814H278.5l-12.685-21.963a25.663,25.663,0,0,0-4.944-6.1c-2.431-2.351-4.35-4.209-4.349-10.122s1.921-7.773,4.352-10.127a25.648,25.648,0,0,0,4.946-6.105L293.5,711.643a23.864,23.864,0,0,0,1.589-3.3c-.285-.984-.514-1.875-.716-2.666a29.365,29.365,0,0,0-.918-3.144c-.82,1.935-2.249,3.727-5.628,5.677-5.128,2.958-7.7,2.222-10.95,1.3a25.678,25.678,0,0,0-7.763-1.229H213.744a25.656,25.656,0,0,0-7.759,1.229,15.689,15.689,0,0,1-4.4.816,12.927,12.927,0,0,1-6.548-2.113c-2.95-1.7-4.413-3.284-5.285-4.945-.114.412-.222.839-.334,1.288a34.38,34.38,0,0,1-1.144,3.829c.3,1,.656,2.1,1.13,3.337a34.548,34.548,0,0,0,5.032,9.49,70.652,70.652,0,0,1,4.165,6.42l18.457,31.956a25.666,25.666,0,0,0,4.944,6.1c2.43,2.351,4.35,4.209,4.349,10.122s-1.921,7.773-4.353,10.127a25.673,25.673,0,0,0-4.945,6.105L204.376,814h-1.16l12.971-22.458a26.875,26.875,0,0,1,5.116-6.325c2.437-2.357,4.046-3.915,4.047-9.4s-1.608-7.043-4.044-9.4a26.856,26.856,0,0,1-5.114-6.321l-18.457-31.956a70.018,70.018,0,0,0-4.113-6.339,35.338,35.338,0,0,1-5.152-9.715c-.306-.8-.557-1.535-.786-2.24a25.5,25.5,0,0,1-1.181,2.3l-27.688,47.938a26.886,26.886,0,0,1-5.117,6.325c-2.436,2.357-4.045,3.915-4.046,9.4s1.608,7.043,4.044,9.4a26.888,26.888,0,0,1,5.115,6.322L171.785,814h-1.161l-12.685-21.963a25.678,25.678,0,0,0-4.943-6.1c-2.431-2.351-4.351-4.209-4.35-10.122s1.921-7.773,4.353-10.127a25.663,25.663,0,0,0,4.945-6.105l27.688-47.938a23.875,23.875,0,0,0,1.59-3.3c-.285-.984-.514-1.875-.715-2.667a29.3,29.3,0,0,0-.919-3.144c-.82,1.935-2.248,3.727-5.628,5.677-5.125,2.959-7.7,2.224-10.95,1.3a25.67,25.67,0,0,0-7.762-1.229H105.87a25.645,25.645,0,0,0-7.758,1.229,15.693,15.693,0,0,1-4.4.816,12.927,12.927,0,0,1-6.549-2.113c-2.95-1.7-4.413-3.285-5.285-4.946-.114.412-.222.839-.334,1.288a34.253,34.253,0,0,1-1.144,3.829c.3,1,.656,2.1,1.129,3.337a34.507,34.507,0,0,0,5.032,9.49,70.85,70.85,0,0,1,4.165,6.42l18.458,31.956a25.651,25.651,0,0,0,4.943,6.1c2.43,2.352,4.35,4.209,4.349,10.122s-1.921,7.773-4.352,10.127a25.649,25.649,0,0,0-4.945,6.105L96.5,814H95.342l12.971-22.458a26.887,26.887,0,0,1,5.117-6.325c2.436-2.357,4.045-3.915,4.046-9.4s-1.608-7.043-4.043-9.4a26.869,26.869,0,0,1-5.115-6.322L89.861,728.135a69.771,69.771,0,0,0-4.113-6.339,35.34,35.34,0,0,1-5.152-9.715c-.306-.8-.557-1.534-.786-2.24a25.507,25.507,0,0,1-1.18,2.3L50.941,760.083a26.886,26.886,0,0,1-5.117,6.325c-2.436,2.357-4.045,3.915-4.046,9.4s1.608,7.043,4.043,9.4a26.888,26.888,0,0,1,5.115,6.322L63.912,814H62.751L50.066,792.037a25.675,25.675,0,0,0-4.943-6.1c-2.43-2.351-4.35-4.209-4.35-10.122s1.921-7.773,4.353-10.127a25.665,25.665,0,0,0,4.945-6.105l27.688-47.938a23.835,23.835,0,0,0,1.589-3.294c-.285-.984-.514-1.876-.715-2.668a29.311,29.311,0,0,0-.919-3.144c-.82,1.935-2.248,3.727-5.628,5.677-5.127,2.958-7.7,2.222-10.95,1.3a25.673,25.673,0,0,0-7.762-1.229H-1v-1.005H53.374a26.909,26.909,0,0,1,8.038,1.267c3.26.93,5.414,1.544,10.171-1.2,3.662-2.113,4.824-3.889,5.543-6.095-.918-1.658-2.432-3.1-5.543-4.894-4.751-2.743-6.905-2.13-10.165-1.2a26.884,26.884,0,0,1-8.034,1.267H-1v-1H53.384a25.655,25.655,0,0,0,7.758-1.229c3.253-.926,5.822-1.661,10.944,1.3a15.979,15.979,0,0,1,5.415,4.461c.068-.261.136-.527.2-.8a31.692,31.692,0,0,1,1.376-4.435,24.211,24.211,0,0,0-1.328-2.659L50.066,644.112a25.675,25.675,0,0,0-4.943-6.1c-2.43-2.351-4.35-4.209-4.35-10.122s1.921-7.773,4.353-10.127a25.662,25.662,0,0,0,4.945-6.105l27.688-47.938a23.83,23.83,0,0,0,1.589-3.294c-.285-.985-.514-1.876-.715-2.668a29.307,29.307,0,0,0-.919-3.144c-.82,1.935-2.248,3.727-5.628,5.677a12.94,12.94,0,0,1-6.552,2.113,15.71,15.71,0,0,1-4.4-.816,25.673,25.673,0,0,0-7.762-1.229H-1v-1H53.374a26.905,26.905,0,0,1,8.038,1.267c3.26.929,5.414,1.545,10.171-1.2,3.663-2.113,4.825-3.889,5.543-6.094-.919-1.658-2.432-3.1-5.543-4.894-4.751-2.743-6.905-2.13-10.165-1.2a26.884,26.884,0,0,1-8.034,1.267H-1v-1H53.384a25.685,25.685,0,0,0,7.758-1.228c3.253-.929,5.822-1.662,10.944,1.3a15.979,15.979,0,0,1,5.415,4.461c.068-.261.136-.527.2-.8a31.689,31.689,0,0,1,1.376-4.435,24.2,24.2,0,0,0-1.328-2.659L50.066,496.186a25.65,25.65,0,0,0-4.943-6.1c-2.431-2.352-4.35-4.21-4.35-10.122s1.921-7.774,4.353-10.127a25.676,25.676,0,0,0,4.945-6.105l27.688-47.938a23.855,23.855,0,0,0,1.589-3.294c-.285-.984-.514-1.876-.715-2.668a29.327,29.327,0,0,0-.919-3.144c-.82,1.935-2.248,3.727-5.628,5.677-5.127,2.956-7.7,2.222-10.95,1.3a25.7,25.7,0,0,0-7.762-1.228H-1v-1H53.374a26.909,26.909,0,0,1,8.038,1.267c3.26.928,5.414,1.544,10.171-1.2,3.663-2.113,4.825-3.888,5.543-6.094-.919-1.658-2.432-3.1-5.543-4.893-4.751-2.743-6.905-2.129-10.165-1.2a26.885,26.885,0,0,1-8.034,1.267H-1v-1H53.384a25.671,25.671,0,0,0,7.758-1.228c3.253-.928,5.822-1.662,10.944,1.3A15.986,15.986,0,0,1,77.5,404.1c.068-.261.135-.527.2-.8a31.666,31.666,0,0,1,1.376-4.436,24.2,24.2,0,0,0-1.328-2.659L50.066,348.261a25.655,25.655,0,0,0-4.943-6.1c-2.43-2.352-4.35-4.21-4.35-10.122s1.921-7.773,4.353-10.127a25.691,25.691,0,0,0,4.945-6.106l27.688-47.938a23.875,23.875,0,0,0,1.589-3.294c-.285-.984-.514-1.876-.715-2.668a29.317,29.317,0,0,0-.919-3.144c-.82,1.935-2.248,3.727-5.628,5.677-5.127,2.957-7.7,2.223-10.95,1.3a25.7,25.7,0,0,0-7.762-1.228H-1v-1H53.374a26.91,26.91,0,0,1,8.038,1.267c3.26.929,5.414,1.544,10.171-1.2,3.662-2.113,4.824-3.888,5.543-6.094-.918-1.658-2.432-3.1-5.543-4.894-4.751-2.743-6.905-2.129-10.165-1.2a26.885,26.885,0,0,1-8.034,1.267H-1v-1H53.384a25.671,25.671,0,0,0,7.758-1.228c3.253-.928,5.822-1.662,10.944,1.3a15.988,15.988,0,0,1,5.415,4.461c.068-.262.135-.527.2-.8a31.683,31.683,0,0,1,1.376-4.436,24.224,24.224,0,0,0-1.328-2.659L50.066,200.336a25.652,25.652,0,0,0-4.943-6.1c-2.431-2.352-4.35-4.21-4.35-10.121s1.921-7.774,4.353-10.127a25.675,25.675,0,0,0,4.945-6.105l27.688-47.938a23.873,23.873,0,0,0,1.589-3.294c-.285-.984-.514-1.876-.715-2.668a29.309,29.309,0,0,0-.919-3.144c-.82,1.935-2.248,3.727-5.628,5.677-5.127,2.956-7.7,2.223-10.95,1.3a25.7,25.7,0,0,0-7.762-1.228H-1v-1H53.374a26.912,26.912,0,0,1,8.038,1.267c3.26.929,5.414,1.544,10.171-1.2,3.663-2.113,4.825-3.888,5.543-6.094-.919-1.658-2.432-3.1-5.543-4.893-4.751-2.743-6.905-2.13-10.165-1.2a26.885,26.885,0,0,1-8.034,1.267H-1v-1H53.384a25.67,25.67,0,0,0,7.758-1.228c3.253-.928,5.822-1.662,10.944,1.3a15.986,15.986,0,0,1,5.415,4.461c.068-.261.136-.527.2-.8a31.669,31.669,0,0,1,1.376-4.436,24.2,24.2,0,0,0-1.328-2.659L50.066,52.411a25.644,25.644,0,0,0-4.943-6.1c-2.43-2.352-4.35-4.21-4.35-10.122s1.921-7.774,4.353-10.127a25.689,25.689,0,0,0,4.945-6.106L62.751-2h1.161L50.941,20.457a26.877,26.877,0,0,1-5.117,6.325c-2.436,2.358-4.045,3.916-4.046,9.4s1.608,7.043,4.044,9.4a26.859,26.859,0,0,1,5.115,6.321L78.625,99.846c.388.673.713,1.31,1,1.925.288-.613.611-1.247,1-1.916l27.688-47.938a26.874,26.874,0,0,1,5.117-6.325c2.436-2.358,4.045-3.916,4.046-9.405s-1.608-7.043-4.043-9.4a26.868,26.868,0,0,1-5.115-6.321L95.342-2H96.5l12.686,21.964a25.632,25.632,0,0,0,4.943,6.1c2.43,2.352,4.35,4.21,4.349,10.122s-1.921,7.774-4.352,10.127a25.663,25.663,0,0,0-4.945,6.106L81.5,100.358a24.183,24.183,0,0,0-1.324,2.65,31.741,31.741,0,0,1,1.374,4.43c.113.452.222.882.337,1.3.87-1.663,2.333-3.245,5.285-4.949,5.126-2.957,7.7-2.224,10.95-1.3a25.691,25.691,0,0,0,7.762,1.228h55.376a25.663,25.663,0,0,0,7.758-1.228c3.253-.929,5.823-1.661,10.944,1.3a15.985,15.985,0,0,1,5.414,4.461c.068-.261.135-.527.2-.8a31.71,31.71,0,0,1,1.376-4.435,24.169,24.169,0,0,0-1.328-2.66L157.939,52.411a25.647,25.647,0,0,0-4.943-6.1c-2.431-2.352-4.351-4.21-4.35-10.122S150.567,28.413,153,26.06a25.686,25.686,0,0,0,4.945-6.106L170.624-2h1.161L158.814,20.457a26.877,26.877,0,0,1-5.117,6.325c-2.436,2.358-4.045,3.916-4.046,9.4s1.608,7.043,4.044,9.4a26.859,26.859,0,0,1,5.115,6.321L186.5,99.846c.388.673.713,1.311,1,1.926.288-.613.612-1.248,1-1.917l27.688-47.938a26.861,26.861,0,0,1,5.116-6.325c2.437-2.358,4.046-3.916,4.047-9.405s-1.608-7.044-4.044-9.4a26.871,26.871,0,0,1-5.114-6.321L203.216-2h1.16l12.685,21.964a25.671,25.671,0,0,0,4.943,6.1c2.431,2.351,4.351,4.209,4.35,10.122S224.433,43.961,222,46.314a25.664,25.664,0,0,0-4.946,6.106l-27.688,47.938a24.182,24.182,0,0,0-1.324,2.651,31.8,31.8,0,0,1,1.374,4.43c.114.452.222.882.337,1.3.87-1.663,2.333-3.246,5.286-4.949,5.127-2.958,7.7-2.225,10.95-1.3a25.7,25.7,0,0,0,7.763,1.228h55.376a25.675,25.675,0,0,0,7.759-1.228c3.251-.927,5.82-1.662,10.944,1.3a15.989,15.989,0,0,1,5.414,4.461c.068-.261.135-.526.2-.8a31.768,31.768,0,0,1,1.377-4.436,24.212,24.212,0,0,0-1.328-2.66L265.812,52.411a25.63,25.63,0,0,0-4.944-6.1c-2.431-2.352-4.35-4.21-4.349-10.123s1.921-7.774,4.352-10.127a25.684,25.684,0,0,0,4.946-6.106L278.5-2h1.16L266.687,20.457a26.836,26.836,0,0,1-5.117,6.325c-2.436,2.358-4.045,3.916-4.046,9.4s1.608,7.044,4.043,9.4a26.842,26.842,0,0,1,5.115,6.321L294.37,99.846c.389.673.714,1.311,1,1.926.289-.613.612-1.248,1-1.917L324.06,51.917a26.862,26.862,0,0,1,5.116-6.325c2.437-2.358,4.046-3.916,4.047-9.405s-1.608-7.043-4.044-9.4a26.87,26.87,0,0,1-5.114-6.321L311.088-2h1.16l12.686,21.964a25.661,25.661,0,0,0,4.943,6.1c2.431,2.352,4.351,4.21,4.35,10.122s-1.921,7.774-4.352,10.127a25.668,25.668,0,0,0-4.946,6.106l-27.688,47.938a24.186,24.186,0,0,0-1.324,2.651,31.8,31.8,0,0,1,1.374,4.43c.113.452.222.882.337,1.3.87-1.663,2.333-3.246,5.286-4.949,5.127-2.958,7.7-2.225,10.95-1.3a25.69,25.69,0,0,0,7.762,1.228H376v1H321.626a26.91,26.91,0,0,1-8.038-1.267,14.923,14.923,0,0,0-4.147-.787,11.917,11.917,0,0,0-6.024,1.987c-3.326,1.918-4.59,3.558-5.332,5.495.743,1.935,2.009,3.574,5.332,5.493,4.753,2.744,6.906,2.13,10.165,1.2a26.884,26.884,0,0,1,8.034-1.267H376v1H321.616a25.671,25.671,0,0,0-7.758,1.228,15.667,15.667,0,0,1-4.4.817,12.931,12.931,0,0,1-6.548-2.113c-2.95-1.7-4.414-3.285-5.285-4.947-.114.412-.222.839-.335,1.289a34.381,34.381,0,0,1-1.144,3.828c.3,1,.656,2.1,1.13,3.338a34.5,34.5,0,0,0,5.031,9.488,70.587,70.587,0,0,1,4.165,6.421l18.458,31.957a25.643,25.643,0,0,0,4.944,6.1c2.43,2.352,4.35,4.21,4.349,10.122s-1.921,7.773-4.353,10.127a25.678,25.678,0,0,0-4.945,6.105l-27.688,47.938a24.164,24.164,0,0,0-1.324,2.651,31.78,31.78,0,0,1,1.374,4.43c.113.452.222.881.337,1.3.87-1.663,2.333-3.246,5.286-4.949,5.127-2.957,7.7-2.224,10.95-1.3a25.694,25.694,0,0,0,7.762,1.228H376v1H321.626a26.91,26.91,0,0,1-8.038-1.267,14.94,14.94,0,0,0-4.147-.787,11.917,11.917,0,0,0-6.024,1.986c-3.325,1.918-4.589,3.559-5.332,5.495.743,1.935,2.008,3.575,5.332,5.493,4.753,2.743,6.906,2.129,10.165,1.2a26.882,26.882,0,0,1,8.034-1.267H376v1H321.616a25.671,25.671,0,0,0-7.758,1.228,15.671,15.671,0,0,1-4.4.817,12.931,12.931,0,0,1-6.548-2.112c-2.95-1.7-4.414-3.285-5.285-4.947-.114.412-.222.839-.335,1.289a34.377,34.377,0,0,1-1.144,3.828c.3,1,.656,2.1,1.13,3.338a34.508,34.508,0,0,0,5.031,9.488,70.773,70.773,0,0,1,4.165,6.422l18.458,31.957a25.645,25.645,0,0,0,4.944,6.1c2.43,2.352,4.35,4.21,4.349,10.121s-1.921,7.774-4.353,10.127a25.684,25.684,0,0,0-4.945,6.105l-27.688,47.938a24.177,24.177,0,0,0-1.324,2.65,31.8,31.8,0,0,1,1.374,4.43c.113.452.222.882.337,1.3.87-1.663,2.333-3.246,5.286-4.949,5.127-2.958,7.7-2.224,10.95-1.3a25.694,25.694,0,0,0,7.762,1.228H376v1H321.626a26.91,26.91,0,0,1-8.038-1.267c-3.26-.93-5.415-1.545-10.171,1.2-3.326,1.918-4.59,3.558-5.332,5.495.743,1.935,2.009,3.574,5.332,5.493,4.753,2.744,6.906,2.129,10.165,1.2a26.881,26.881,0,0,1,8.034-1.267H376v1H321.616a25.671,25.671,0,0,0-7.758,1.228,15.671,15.671,0,0,1-4.4.817,12.931,12.931,0,0,1-6.548-2.112c-2.95-1.7-4.414-3.285-5.285-4.947-.114.412-.222.839-.335,1.289a34.344,34.344,0,0,1-1.144,3.828c.3,1,.656,2.1,1.13,3.338a34.5,34.5,0,0,0,5.031,9.488,70.524,70.524,0,0,1,4.165,6.421l18.458,31.957a25.641,25.641,0,0,0,4.944,6.1c2.43,2.352,4.35,4.21,4.349,10.122s-1.921,7.773-4.352,10.127a25.666,25.666,0,0,0-4.946,6.106l-27.688,47.938a24.227,24.227,0,0,0-1.324,2.651,31.768,31.768,0,0,1,1.374,4.43c.113.452.222.881.337,1.3.87-1.663,2.333-3.245,5.286-4.948,5.127-2.957,7.7-2.225,10.95-1.3a25.709,25.709,0,0,0,7.762,1.228H376v1H321.626a26.909,26.909,0,0,1-8.038-1.267,14.961,14.961,0,0,0-4.147-.787,11.921,11.921,0,0,0-6.024,1.986c-3.325,1.919-4.589,3.559-5.332,5.5.743,1.935,2.009,3.574,5.332,5.493,4.753,2.743,6.906,2.13,10.165,1.2a26.878,26.878,0,0,1,8.034-1.267H376v1H321.616a25.649,25.649,0,0,0-7.758,1.229,15.693,15.693,0,0,1-4.4.816,12.927,12.927,0,0,1-6.548-2.113c-2.95-1.7-4.414-3.285-5.285-4.946-.114.412-.222.84-.335,1.289a34.4,34.4,0,0,1-1.144,3.828c.3,1.005.656,2.1,1.13,3.338a34.508,34.508,0,0,0,5.031,9.488,70.509,70.509,0,0,1,4.165,6.421l18.458,31.958a25.658,25.658,0,0,0,4.943,6.1c2.431,2.352,4.351,4.209,4.35,10.122s-1.921,7.773-4.352,10.127a25.681,25.681,0,0,0-4.946,6.106l-27.688,47.938a24.189,24.189,0,0,0-1.324,2.65,31.771,31.771,0,0,1,1.374,4.43c.113.452.222.882.337,1.3.87-1.663,2.333-3.245,5.286-4.948,5.127-2.959,7.7-2.224,10.95-1.3a25.676,25.676,0,0,0,7.762,1.229H376v1H321.626a26.909,26.909,0,0,1-8.038-1.267c-3.26-.931-5.415-1.545-10.171,1.2-3.325,1.919-4.589,3.559-5.332,5.5.743,1.935,2.009,3.574,5.332,5.493,4.753,2.744,6.906,2.129,10.165,1.2a26.882,26.882,0,0,1,8.034-1.267H376v1.005H321.616a25.649,25.649,0,0,0-7.758,1.229,15.689,15.689,0,0,1-4.4.816,12.927,12.927,0,0,1-6.548-2.113c-2.95-1.7-4.414-3.285-5.285-4.946-.114.412-.222.84-.335,1.289a34.4,34.4,0,0,1-1.143,3.828c.3,1,.656,2.1,1.13,3.337a34.5,34.5,0,0,0,5.031,9.489,70.644,70.644,0,0,1,4.165,6.421l18.458,31.956a25.625,25.625,0,0,0,4.944,6.1c2.43,2.352,4.35,4.21,4.349,10.122s-1.921,7.773-4.353,10.127A25.678,25.678,0,0,0,324.929,792.045ZM295.556,561.916a25.465,25.465,0,0,1-1.181,2.3l-27.688,47.938a26.847,26.847,0,0,1-5.117,6.325c-2.436,2.357-4.045,3.915-4.046,9.4s1.608,7.043,4.043,9.4a26.86,26.86,0,0,1,5.115,6.322l27.688,47.938c.389.673.714,1.31,1,1.926.289-.613.612-1.248,1-1.917l27.688-47.938a26.883,26.883,0,0,1,5.116-6.326c2.437-2.357,4.046-3.915,4.047-9.4s-1.608-7.043-4.044-9.4a26.86,26.86,0,0,1-5.114-6.321l-18.458-31.957a69.887,69.887,0,0,0-4.114-6.34,35.31,35.31,0,0,1-5.15-9.713C296.036,563.357,295.785,562.622,295.556,561.916Zm-.184-13.743c-.421,1.2-.692,2.278-.945,3.291-.152.608-.3,1.191-.469,1.758a21.48,21.48,0,0,1,1.4,4.286c.1.4.209.82.322,1.25.259-.84.457-1.624.644-2.371.216-.862.422-1.676.7-2.461-.278-.788-.485-1.6-.7-2.468C296.063,550.447,295.792,549.369,295.372,548.173Zm-2.126,3.849c.068-.261.135-.526.2-.8a31.755,31.755,0,0,1,1.377-4.435,24.208,24.208,0,0,0-1.328-2.66l-27.688-47.938a25.649,25.649,0,0,0-4.944-6.1c-2.431-2.352-4.35-4.209-4.349-10.122s1.921-7.774,4.352-10.127a25.658,25.658,0,0,0,4.946-6.105L293.5,415.792a23.845,23.845,0,0,0,1.589-3.3c-.285-.984-.514-1.875-.715-2.666a29.373,29.373,0,0,0-.918-3.144c-.82,1.935-2.249,3.727-5.628,5.677a12.949,12.949,0,0,1-6.553,2.112,15.686,15.686,0,0,1-4.4-.817,25.7,25.7,0,0,0-7.763-1.228H213.744a25.678,25.678,0,0,0-7.759,1.228c-3.251.928-5.82,1.663-10.944-1.3-2.95-1.7-4.414-3.284-5.285-4.946-.113.412-.222.838-.334,1.287a34.369,34.369,0,0,1-1.145,3.829c.3,1,.656,2.1,1.13,3.338a34.492,34.492,0,0,0,5.032,9.488,70.84,70.84,0,0,1,4.165,6.421l18.457,31.957a25.661,25.661,0,0,0,4.944,6.1c2.43,2.352,4.35,4.209,4.349,10.122s-1.921,7.773-4.352,10.127a25.662,25.662,0,0,0-4.946,6.106l-27.688,47.938a24.172,24.172,0,0,0-1.324,2.651,31.778,31.778,0,0,1,1.374,4.43c.114.452.222.882.337,1.3.87-1.663,2.333-3.246,5.286-4.949,5.125-2.956,7.7-2.225,10.95-1.3a25.716,25.716,0,0,0,7.763,1.228h55.376a25.693,25.693,0,0,0,7.759-1.228c3.251-.929,5.82-1.663,10.944,1.3A15.988,15.988,0,0,1,293.246,552.022Zm-5.917-3.591c-4.753-2.743-6.906-2.128-10.165-1.2a26.887,26.887,0,0,1-8.035,1.267H213.754a26.9,26.9,0,0,1-8.038-1.267c-3.262-.929-5.416-1.545-10.172,1.2-3.326,1.919-4.589,3.559-5.331,5.5.743,1.934,2.009,3.574,5.331,5.492,4.752,2.743,6.907,2.13,10.165,1.2a26.885,26.885,0,0,1,8.035-1.267H269.12a26.9,26.9,0,0,1,8.038,1.267c3.26.929,5.415,1.545,10.172-1.2,3.663-2.113,4.824-3.889,5.542-6.095C291.954,551.667,290.44,550.227,287.329,548.431ZM187.8,558.758c.259-.84.457-1.625.644-2.372.216-.862.422-1.675.7-2.46-.278-.788-.485-1.6-.7-2.468-.253-1.011-.525-2.089-.944-3.285-.421,1.2-.692,2.278-.946,3.29-.152.608-.3,1.192-.469,1.759a21.492,21.492,0,0,1,1.4,4.286C187.583,557.91,187.689,558.328,187.8,558.758Zm-.12,3.158a25.528,25.528,0,0,1-1.181,2.3l-27.688,47.938a26.888,26.888,0,0,1-5.117,6.325c-2.436,2.357-4.045,3.915-4.046,9.4s1.608,7.043,4.044,9.4a26.885,26.885,0,0,1,5.115,6.322L186.5,691.547c.388.673.713,1.31,1,1.926.288-.613.612-1.247,1-1.917l27.688-47.938a26.883,26.883,0,0,1,5.116-6.326c2.437-2.357,4.046-3.915,4.047-9.4s-1.608-7.043-4.044-9.4a26.879,26.879,0,0,1-5.114-6.321l-18.457-31.957a69.853,69.853,0,0,0-4.114-6.339,35.344,35.344,0,0,1-5.151-9.714C188.163,563.357,187.912,562.622,187.683,561.916Zm-2.309-9.894c.068-.261.136-.527.2-.8a31.685,31.685,0,0,1,1.376-4.435,24.176,24.176,0,0,0-1.328-2.66l-27.688-47.938a25.638,25.638,0,0,0-4.944-6.1c-2.43-2.352-4.35-4.21-4.349-10.122s1.921-7.774,4.353-10.127a25.674,25.674,0,0,0,4.945-6.105l27.688-47.938a23.859,23.859,0,0,0,1.59-3.295c-.285-.984-.514-1.875-.715-2.667a29.346,29.346,0,0,0-.919-3.144c-.82,1.935-2.248,3.727-5.628,5.677-5.125,2.956-7.7,2.224-10.95,1.3a25.692,25.692,0,0,0-7.762-1.228H105.87a25.668,25.668,0,0,0-7.758,1.228,15.676,15.676,0,0,1-4.4.817,12.931,12.931,0,0,1-6.549-2.112c-2.95-1.7-4.414-3.285-5.285-4.947-.114.412-.222.839-.334,1.288a34.27,34.27,0,0,1-1.144,3.83c.3,1,.656,2.1,1.129,3.337a34.494,34.494,0,0,0,5.031,9.488,70.692,70.692,0,0,1,4.166,6.421l18.458,31.957a25.626,25.626,0,0,0,4.943,6.1c2.43,2.352,4.35,4.21,4.349,10.122s-1.921,7.773-4.352,10.127a25.662,25.662,0,0,0-4.945,6.106L81.5,544.133a24.186,24.186,0,0,0-1.324,2.65,31.742,31.742,0,0,1,1.374,4.43c.113.452.222.881.337,1.3.87-1.663,2.333-3.245,5.285-4.949,5.126-2.956,7.7-2.225,10.95-1.3a25.709,25.709,0,0,0,7.762,1.228h55.376a25.682,25.682,0,0,0,7.758-1.228c3.253-.929,5.823-1.662,10.944,1.3A15.978,15.978,0,0,1,185.374,552.022Zm-5.917-3.591c-4.752-2.743-6.906-2.128-10.165-1.2a26.886,26.886,0,0,1-8.034,1.267H105.881a26.907,26.907,0,0,1-8.038-1.267c-3.26-.928-5.416-1.544-10.172,1.2-3.325,1.919-4.589,3.559-5.331,5.5.743,1.935,2.008,3.574,5.331,5.493,4.753,2.745,6.906,2.13,10.166,1.2a26.873,26.873,0,0,1,8.034-1.267h55.377a26.9,26.9,0,0,1,8.038,1.267c3.261.931,5.414,1.545,10.172-1.2,3.662-2.113,4.824-3.889,5.543-6.095C184.081,551.667,182.568,550.227,179.457,548.431ZM81.883,259.492c-.114.412-.222.839-.334,1.288a34.278,34.278,0,0,1-1.144,3.829c.3,1,.656,2.1,1.129,3.337a34.5,34.5,0,0,0,5.031,9.488,70.821,70.821,0,0,1,4.166,6.421l18.458,31.957a25.643,25.643,0,0,0,4.943,6.1c2.43,2.352,4.35,4.21,4.349,10.121s-1.921,7.774-4.353,10.127a25.657,25.657,0,0,0-4.945,6.105L81.5,396.208a24.187,24.187,0,0,0-1.324,2.65,31.74,31.74,0,0,1,1.374,4.43c.113.452.222.882.337,1.3.87-1.663,2.333-3.245,5.285-4.949,5.126-2.956,7.7-2.223,10.95-1.3a25.694,25.694,0,0,0,7.762,1.228h55.376a25.667,25.667,0,0,0,7.758-1.228c3.253-.928,5.823-1.661,10.944,1.3a15.986,15.986,0,0,1,5.415,4.461c.068-.261.135-.527.2-.8a31.661,31.661,0,0,1,1.376-4.435,24.18,24.18,0,0,0-1.328-2.66l-27.688-47.938a25.657,25.657,0,0,0-4.943-6.1c-2.431-2.352-4.351-4.21-4.35-10.122s1.921-7.773,4.353-10.127a25.689,25.689,0,0,0,4.945-6.106l27.688-47.938a23.878,23.878,0,0,0,1.59-3.295c-.285-.984-.514-1.875-.715-2.667a29.336,29.336,0,0,0-.919-3.144c-.82,1.935-2.248,3.727-5.628,5.677-5.125,2.957-7.7,2.224-10.95,1.3a25.692,25.692,0,0,0-7.762-1.228H105.87a25.668,25.668,0,0,0-7.758,1.228,15.676,15.676,0,0,1-4.4.817,12.932,12.932,0,0,1-6.549-2.112C84.218,262.736,82.754,261.154,81.883,259.492Zm5.787,4.077c4.753,2.744,6.906,2.129,10.166,1.2a26.88,26.88,0,0,1,8.034-1.267h55.377a26.907,26.907,0,0,1,8.038,1.267c3.261.93,5.416,1.544,10.172-1.2,3.662-2.113,4.824-3.889,5.542-6.095-.918-1.657-2.432-3.1-5.542-4.893-4.752-2.744-6.906-2.128-10.165-1.2a26.887,26.887,0,0,1-8.034,1.267H105.881a26.908,26.908,0,0,1-8.038-1.267c-3.26-.93-5.416-1.544-10.172,1.2-3.325,1.919-4.589,3.558-5.331,5.495C83.083,260.011,84.348,261.651,87.671,263.569ZM187.5,252.323c-.421,1.2-.692,2.278-.946,3.29-.152.608-.3,1.192-.469,1.759a21.492,21.492,0,0,1,1.4,4.286c.1.4.209.82.322,1.25.259-.84.456-1.625.644-2.372.216-.862.422-1.675.7-2.46-.278-.788-.485-1.6-.7-2.468C188.19,254.6,187.919,253.518,187.5,252.323Zm0-2.626c.289-.613.612-1.248,1-1.917l27.688-47.938a26.884,26.884,0,0,1,5.116-6.325c2.437-2.358,4.046-3.915,4.047-9.4s-1.608-7.044-4.044-9.4a26.862,26.862,0,0,1-5.114-6.322l-18.457-31.957a70.019,70.019,0,0,0-4.114-6.339,35.34,35.34,0,0,1-5.151-9.714c-.306-.8-.557-1.535-.786-2.241a25.479,25.479,0,0,1-1.181,2.3l-27.688,47.938a26.883,26.883,0,0,1-5.117,6.324c-2.436,2.358-4.046,3.916-4.047,9.406s1.608,7.043,4.044,9.4a26.87,26.87,0,0,1,5.115,6.322L186.5,247.772C186.886,248.444,187.21,249.082,187.5,249.7Zm2.257,9.8c-.114.412-.222.838-.334,1.288a34.4,34.4,0,0,1-1.144,3.829c.3,1,.656,2.1,1.13,3.337a34.5,34.5,0,0,0,5.032,9.488,70.86,70.86,0,0,1,4.165,6.421l18.457,31.957a25.653,25.653,0,0,0,4.944,6.1c2.43,2.352,4.35,4.209,4.349,10.121s-1.921,7.774-4.353,10.127a25.679,25.679,0,0,0-4.945,6.105l-27.688,47.938a24.182,24.182,0,0,0-1.324,2.651,31.791,31.791,0,0,1,1.374,4.43c.114.452.222.882.337,1.3.87-1.663,2.333-3.246,5.286-4.949,5.125-2.956,7.7-2.224,10.95-1.3a25.7,25.7,0,0,0,7.763,1.228h55.376a25.678,25.678,0,0,0,7.759-1.228c3.251-.928,5.82-1.663,10.944,1.3a15.985,15.985,0,0,1,5.414,4.461c.068-.261.135-.526.2-.8a31.788,31.788,0,0,1,1.377-4.435,24.239,24.239,0,0,0-1.328-2.66l-27.688-47.938a25.649,25.649,0,0,0-4.944-6.1c-2.431-2.352-4.35-4.21-4.349-10.122s1.921-7.773,4.352-10.127a25.686,25.686,0,0,0,4.946-6.106L293.5,267.867a23.863,23.863,0,0,0,1.589-3.3c-.285-.984-.514-1.875-.716-2.666a29.362,29.362,0,0,0-.918-3.144c-.82,1.935-2.249,3.728-5.628,5.677a12.949,12.949,0,0,1-6.553,2.112,15.686,15.686,0,0,1-4.4-.817,25.7,25.7,0,0,0-7.763-1.228H213.744a25.678,25.678,0,0,0-7.759,1.228c-3.251.928-5.82,1.663-10.944-1.3C192.092,262.736,190.628,261.155,189.757,259.493Zm5.787,4.076c4.752,2.743,6.907,2.129,10.165,1.2a26.889,26.889,0,0,1,8.035-1.267H269.12a26.9,26.9,0,0,1,8.038,1.267c3.26.929,5.415,1.544,10.172-1.2,3.662-2.113,4.824-3.889,5.542-6.095-.918-1.657-2.432-3.1-5.542-4.893-4.753-2.744-6.906-2.13-10.165-1.2a26.888,26.888,0,0,1-8.035,1.267H213.754a26.9,26.9,0,0,1-8.038-1.267c-3.262-.93-5.416-1.545-10.172,1.2-3.326,1.919-4.589,3.559-5.331,5.5C190.956,260.011,192.221,261.651,195.544,263.569Zm91.786,136.937c-4.753-2.745-6.906-2.129-10.165-1.2a26.888,26.888,0,0,1-8.035,1.267H213.754a26.9,26.9,0,0,1-8.038-1.267c-3.262-.93-5.416-1.545-10.172,1.2-3.326,1.919-4.589,3.559-5.331,5.5.743,1.934,2.009,3.574,5.331,5.492,4.752,2.744,6.907,2.129,10.165,1.2a26.888,26.888,0,0,1,8.035-1.267H269.12a26.9,26.9,0,0,1,8.038,1.267c3.26.928,5.415,1.544,10.172-1.2,3.663-2.113,4.824-3.889,5.542-6.094C291.953,403.742,290.44,402.3,287.329,400.506ZM187.8,410.833c.259-.84.457-1.625.644-2.372.216-.861.422-1.674.7-2.46-.278-.788-.485-1.6-.7-2.469-.253-1.011-.525-2.089-.944-3.285-.421,1.2-.692,2.278-.946,3.29-.152.608-.3,1.192-.469,1.759a21.49,21.49,0,0,1,1.4,4.286C187.583,409.985,187.689,410.4,187.8,410.833Zm-.12,3.158a25.526,25.526,0,0,1-1.181,2.3l-27.688,47.938a26.88,26.88,0,0,1-5.117,6.324c-2.436,2.358-4.046,3.916-4.047,9.405s1.608,7.043,4.044,9.4a26.871,26.871,0,0,1,5.115,6.322L186.5,543.622c.388.673.713,1.31,1,1.926.288-.613.612-1.247,1-1.917l27.688-47.938a26.881,26.881,0,0,1,5.116-6.325c2.437-2.358,4.046-3.915,4.047-9.4s-1.608-7.044-4.044-9.4a26.866,26.866,0,0,1-5.114-6.322l-18.457-31.957a69.942,69.942,0,0,0-4.114-6.339,35.341,35.341,0,0,1-5.151-9.713C188.163,415.432,187.912,414.7,187.683,413.991Zm-.183-16.369c.288-.613.612-1.247,1-1.917l27.688-47.938a26.87,26.87,0,0,1,5.116-6.324c2.436-2.358,4.046-3.916,4.047-9.406s-1.608-7.043-4.044-9.4a26.864,26.864,0,0,1-5.114-6.322l-18.457-31.957a69.886,69.886,0,0,0-4.114-6.34,35.341,35.341,0,0,1-5.151-9.713c-.306-.8-.557-1.535-.786-2.24a25.48,25.48,0,0,1-1.181,2.3l-27.688,47.938a26.89,26.89,0,0,1-5.117,6.325c-2.436,2.358-4.045,3.915-4.046,9.4s1.608,7.043,4.044,9.4a26.853,26.853,0,0,1,5.115,6.322L186.5,395.7C186.886,396.369,187.211,397.007,187.5,397.622Zm-8.044,2.884c-4.752-2.744-6.906-2.129-10.165-1.2a26.887,26.887,0,0,1-8.034,1.267H105.881a26.909,26.909,0,0,1-8.038-1.267c-3.26-.93-5.416-1.544-10.172,1.2-3.325,1.919-4.589,3.558-5.331,5.495.743,1.935,2.008,3.574,5.331,5.493,4.753,2.745,6.906,2.129,10.166,1.2a26.879,26.879,0,0,1,8.034-1.267h55.377a26.906,26.906,0,0,1,8.038,1.267c3.261.929,5.416,1.544,10.172-1.2,3.662-2.113,4.824-3.888,5.543-6.094C184.081,403.742,182.568,402.3,179.457,400.506Zm116.1,13.484a25.463,25.463,0,0,1-1.181,2.3l-27.688,47.938a26.864,26.864,0,0,1-5.116,6.324c-2.437,2.358-4.046,3.916-4.047,9.405s1.608,7.043,4.043,9.4a26.84,26.84,0,0,1,5.115,6.321l27.688,47.938c.389.673.714,1.311,1,1.926.289-.613.612-1.248,1-1.917l27.688-47.938a26.882,26.882,0,0,1,5.116-6.325c2.437-2.358,4.046-3.915,4.047-9.4s-1.608-7.043-4.044-9.4a26.873,26.873,0,0,1-5.114-6.322l-18.458-31.957a69.913,69.913,0,0,0-4.114-6.34,35.318,35.318,0,0,1-5.15-9.713C296.036,415.432,295.785,414.7,295.556,413.99Zm-.184-13.743c-.421,1.2-.692,2.278-.945,3.291-.152.608-.3,1.191-.469,1.759a21.475,21.475,0,0,1,1.4,4.286c.1.4.209.819.322,1.25.259-.84.457-1.624.644-2.371.216-.862.422-1.675.7-2.461-.278-.788-.485-1.6-.7-2.468C296.063,402.522,295.792,401.443,295.372,400.248Zm.184-134.183a25.455,25.455,0,0,1-1.181,2.3l-27.688,47.938a26.848,26.848,0,0,1-5.117,6.325c-2.436,2.358-4.045,3.915-4.046,9.4s1.608,7.044,4.043,9.4a26.836,26.836,0,0,1,5.115,6.322L294.37,395.7c.389.673.714,1.311,1,1.926.289-.613.612-1.248,1-1.917l27.688-47.938a26.87,26.87,0,0,1,5.116-6.324c2.436-2.358,4.046-3.916,4.047-9.406s-1.608-7.043-4.044-9.4a26.869,26.869,0,0,1-5.114-6.322l-18.458-31.957a69.848,69.848,0,0,0-4.114-6.34,35.318,35.318,0,0,1-5.15-9.713C296.036,267.507,295.785,266.771,295.556,266.065Zm-.184-13.742c-.421,1.2-.692,2.278-.945,3.291-.152.608-.3,1.192-.469,1.759a21.479,21.479,0,0,1,1.4,4.286c.1.4.209.819.322,1.25.259-.84.457-1.625.644-2.371.216-.862.422-1.675.7-2.461-.278-.788-.485-1.6-.7-2.468C296.063,254.6,295.792,253.518,295.372,252.323Zm.184-134.183a25.494,25.494,0,0,1-1.181,2.3l-27.688,47.938a26.867,26.867,0,0,1-5.116,6.324c-2.437,2.358-4.046,3.916-4.047,9.406s1.608,7.043,4.043,9.4a26.84,26.84,0,0,1,5.115,6.321l27.688,47.938c.389.673.714,1.31,1,1.926.288-.613.612-1.248,1-1.917l27.688-47.938a26.884,26.884,0,0,1,5.116-6.325c2.437-2.358,4.046-3.915,4.047-9.4s-1.608-7.043-4.044-9.4a26.869,26.869,0,0,1-5.114-6.322l-18.458-31.957a69.675,69.675,0,0,0-4.114-6.34,35.324,35.324,0,0,1-5.15-9.713C296.036,119.581,295.785,118.846,295.556,118.14Zm-1.6-8.693a21.473,21.473,0,0,1,1.4,4.286c.1.4.209.819.322,1.25.259-.84.457-1.624.644-2.371.216-.862.422-1.675.7-2.461-.278-.788-.485-1.6-.7-2.468-.254-1.011-.525-2.089-.945-3.285-.421,1.2-.692,2.278-.945,3.291C294.274,108.3,294.128,108.88,293.957,109.447Zm-103.745.7c.743,1.934,2.009,3.574,5.331,5.492,4.752,2.744,6.907,2.13,10.165,1.2a26.891,26.891,0,0,1,8.035-1.267H269.12a26.9,26.9,0,0,1,8.038,1.267c3.26.929,5.415,1.544,10.172-1.2,3.662-2.113,4.824-3.889,5.542-6.094-.918-1.657-2.431-3.1-5.542-4.893-4.753-2.744-6.906-2.131-10.165-1.2a26.888,26.888,0,0,1-8.035,1.267H213.754a26.9,26.9,0,0,1-8.038-1.267c-3.262-.931-5.416-1.545-10.172,1.2C192.218,106.575,190.955,108.215,190.212,110.152Zm-1.934,6.533c.3,1,.656,2.1,1.13,3.337a34.51,34.51,0,0,0,5.032,9.489,70.6,70.6,0,0,1,4.165,6.42l18.457,31.957a25.665,25.665,0,0,0,4.944,6.1c2.43,2.352,4.35,4.209,4.349,10.122s-1.921,7.773-4.353,10.127a25.673,25.673,0,0,0-4.945,6.105l-27.688,47.938a24.185,24.185,0,0,0-1.324,2.651,31.793,31.793,0,0,1,1.374,4.43c.114.452.222.882.337,1.3.87-1.663,2.333-3.246,5.286-4.949,5.125-2.955,7.7-2.224,10.95-1.3a25.7,25.7,0,0,0,7.763,1.228h55.376a25.678,25.678,0,0,0,7.759-1.228c3.251-.928,5.82-1.662,10.944,1.3a15.99,15.99,0,0,1,5.414,4.461c.068-.261.135-.527.2-.8a31.791,31.791,0,0,1,1.377-4.435,24.211,24.211,0,0,0-1.328-2.66l-27.688-47.938a25.653,25.653,0,0,0-4.944-6.1c-2.431-2.352-4.35-4.209-4.349-10.121s1.921-7.774,4.352-10.127a25.657,25.657,0,0,0,4.946-6.105L293.5,119.942a23.855,23.855,0,0,0,1.589-3.3c-.285-.984-.514-1.875-.716-2.666a29.38,29.38,0,0,0-.918-3.144c-.82,1.935-2.249,3.727-5.628,5.677a12.949,12.949,0,0,1-6.553,2.113,15.682,15.682,0,0,1-4.4-.817,25.7,25.7,0,0,0-7.763-1.228H213.744a25.678,25.678,0,0,0-7.759,1.228c-3.251.928-5.82,1.662-10.944-1.3-2.95-1.7-4.414-3.285-5.285-4.946-.113.412-.222.838-.334,1.287A34.39,34.39,0,0,1,188.278,116.685Zm-2.193-7.238a21.487,21.487,0,0,1,1.4,4.286c.1.4.209.82.322,1.25.259-.84.457-1.625.644-2.372.216-.861.422-1.674.7-2.46-.278-.788-.485-1.6-.7-2.468-.253-1.011-.525-2.089-.944-3.285-.421,1.2-.692,2.278-.946,3.29C186.4,108.3,186.255,108.88,186.085,109.447Zm-103.745.7c.743,1.935,2.008,3.574,5.331,5.493,4.753,2.745,6.906,2.129,10.166,1.2a26.882,26.882,0,0,1,8.034-1.267h55.377a26.909,26.909,0,0,1,8.038,1.267c3.261.93,5.416,1.544,10.172-1.2,3.662-2.113,4.825-3.888,5.543-6.094-.919-1.657-2.432-3.1-5.543-4.893-4.752-2.744-6.906-2.13-10.165-1.2a26.884,26.884,0,0,1-8.034,1.267H105.881a26.908,26.908,0,0,1-8.038-1.267c-3.26-.93-5.416-1.545-10.172,1.2C84.345,106.575,83.082,108.214,82.34,110.151Zm-1.934,6.534c.3,1,.656,2.1,1.129,3.337a34.5,34.5,0,0,0,5.032,9.489,70.8,70.8,0,0,1,4.165,6.42l18.458,31.957a25.629,25.629,0,0,0,4.943,6.1c2.43,2.352,4.35,4.21,4.349,10.122s-1.921,7.773-4.352,10.127a25.649,25.649,0,0,0-4.945,6.105L81.5,248.283a24.177,24.177,0,0,0-1.324,2.65,31.723,31.723,0,0,1,1.374,4.431c.113.452.222.881.337,1.3.87-1.663,2.333-3.246,5.285-4.949,5.126-2.956,7.7-2.223,10.95-1.3a25.694,25.694,0,0,0,7.762,1.228h55.376a25.667,25.667,0,0,0,7.758-1.228c3.253-.929,5.823-1.661,10.944,1.3a15.989,15.989,0,0,1,5.414,4.461c.068-.261.135-.527.2-.8a31.722,31.722,0,0,1,1.376-4.435,24.2,24.2,0,0,0-1.328-2.66l-27.688-47.938a25.64,25.64,0,0,0-4.944-6.1c-2.43-2.352-4.35-4.21-4.349-10.121s1.921-7.774,4.353-10.127a25.673,25.673,0,0,0,4.945-6.105l27.688-47.938a23.872,23.872,0,0,0,1.59-3.295c-.285-.984-.514-1.875-.715-2.667a29.33,29.33,0,0,0-.919-3.144c-.82,1.935-2.248,3.727-5.628,5.677-5.125,2.957-7.7,2.224-10.95,1.3a25.692,25.692,0,0,0-7.762-1.228H105.87a25.667,25.667,0,0,0-7.758,1.228,15.672,15.672,0,0,1-4.4.817,12.932,12.932,0,0,1-6.549-2.113c-2.95-1.7-4.414-3.285-5.285-4.947-.114.412-.222.839-.334,1.288A34.248,34.248,0,0,1,80.406,116.685Zm-.8-2.952c.1.4.209.82.323,1.251.259-.841.457-1.625.644-2.372.216-.862.422-1.675.7-2.461-.278-.788-.485-1.6-.7-2.468-.254-1.011-.525-2.09-.945-3.286-.421,1.2-.692,2.278-.946,3.291-.152.608-.3,1.192-.469,1.759A21.493,21.493,0,0,1,79.608,113.733Zm.02,135.964c.288-.613.612-1.247,1-1.916l27.688-47.938a26.885,26.885,0,0,1,5.117-6.325c2.436-2.358,4.045-3.915,4.046-9.4s-1.608-7.043-4.043-9.4a26.866,26.866,0,0,1-5.115-6.322L89.861,136.434a69.912,69.912,0,0,0-4.113-6.339,35.311,35.311,0,0,1-5.152-9.714c-.306-.8-.557-1.535-.786-2.24a25.514,25.514,0,0,1-1.18,2.3L50.941,168.383a26.88,26.88,0,0,1-5.117,6.324c-2.436,2.358-4.046,3.916-4.047,9.406s1.608,7.043,4.043,9.4a26.87,26.87,0,0,1,5.115,6.322l27.688,47.938C79.013,248.444,79.338,249.081,79.627,249.7Zm-.02,11.962c.1.4.209.82.323,1.251.259-.841.457-1.625.644-2.373.216-.862.422-1.675.7-2.46-.278-.788-.485-1.6-.7-2.468-.254-1.011-.525-2.09-.945-3.286-.421,1.2-.692,2.278-.946,3.291-.152.608-.3,1.192-.469,1.759A21.5,21.5,0,0,1,79.608,261.658Zm.02,135.964c.288-.613.611-1.247,1-1.916l27.688-47.938a26.9,26.9,0,0,1,5.117-6.325c2.436-2.358,4.045-3.915,4.046-9.4s-1.608-7.043-4.043-9.4a26.854,26.854,0,0,1-5.115-6.322L89.861,284.359a69.785,69.785,0,0,0-4.113-6.34,35.311,35.311,0,0,1-5.151-9.713c-.306-.8-.557-1.534-.786-2.24a25.5,25.5,0,0,1-1.18,2.3L50.941,316.307a26.889,26.889,0,0,1-5.117,6.325c-2.436,2.358-4.045,3.915-4.046,9.4s1.608,7.043,4.043,9.4a26.853,26.853,0,0,1,5.115,6.322L78.625,395.7C79.013,396.369,79.338,397.007,79.627,397.622Zm-.02,11.962c.1.4.209.82.323,1.251.259-.841.457-1.625.644-2.372.216-.862.422-1.675.7-2.461-.278-.788-.485-1.6-.7-2.468-.254-1.011-.525-2.09-.944-3.285-.421,1.2-.692,2.278-.946,3.291-.152.608-.3,1.192-.469,1.759A21.5,21.5,0,0,1,79.608,409.583Zm.02,135.963c.288-.612.611-1.247,1-1.916l27.688-47.938a26.894,26.894,0,0,1,5.117-6.325c2.436-2.358,4.045-3.915,4.046-9.4s-1.608-7.043-4.043-9.4a26.87,26.87,0,0,1-5.115-6.322L89.861,432.284a69.733,69.733,0,0,0-4.113-6.339,35.324,35.324,0,0,1-5.151-9.713c-.306-.8-.557-1.534-.786-2.24a25.484,25.484,0,0,1-1.18,2.3L50.941,464.233a26.877,26.877,0,0,1-5.117,6.324c-2.436,2.358-4.046,3.916-4.047,9.405s1.608,7.043,4.043,9.4a26.871,26.871,0,0,1,5.115,6.322l27.688,47.938C79.013,544.294,79.338,544.932,79.627,545.547Zm-.02,11.961c.1.4.209.82.323,1.251.259-.841.457-1.626.644-2.373.216-.862.422-1.675.7-2.46-.278-.788-.485-1.6-.7-2.468-.254-1.011-.525-2.09-.945-3.286-.421,1.2-.692,2.278-.946,3.291-.152.608-.3,1.192-.469,1.759A21.5,21.5,0,0,1,79.608,557.508Zm.02,135.964c.288-.613.611-1.247,1-1.916l27.688-47.938a26.882,26.882,0,0,1,5.117-6.326c2.436-2.357,4.045-3.915,4.046-9.4s-1.608-7.043-4.043-9.4a26.858,26.858,0,0,1-5.115-6.321L89.861,580.209a69.644,69.644,0,0,0-4.113-6.339,35.328,35.328,0,0,1-5.151-9.714c-.306-.8-.557-1.535-.786-2.24a25.511,25.511,0,0,1-1.18,2.3L50.941,612.158a26.888,26.888,0,0,1-5.117,6.325c-2.436,2.357-4.045,3.915-4.046,9.4s1.608,7.043,4.043,9.4a26.886,26.886,0,0,1,5.115,6.322l27.688,47.938C79.013,692.22,79.338,692.857,79.627,693.472Zm1.646,8.379c-.278-.788-.485-1.6-.7-2.468-.254-1.011-.525-2.09-.945-3.286-.421,1.2-.692,2.278-.946,3.291-.152.608-.3,1.192-.469,1.759a21.5,21.5,0,0,1,1.4,4.286c.1.4.209.82.323,1.251.259-.841.457-1.625.644-2.373C80.79,703.45,81,702.637,81.273,701.852ZM185,701.25c-.919-1.658-2.432-3.1-5.543-4.894-4.752-2.743-6.906-2.128-10.165-1.2a26.883,26.883,0,0,1-8.034,1.267H105.881a26.907,26.907,0,0,1-8.038-1.267c-3.26-.93-5.416-1.544-10.172,1.2-3.325,1.919-4.589,3.559-5.331,5.5.743,1.935,2.008,3.574,5.331,5.493,4.753,2.744,6.906,2.129,10.166,1.2a26.877,26.877,0,0,1,8.034-1.267h55.377a26.906,26.906,0,0,1,8.038,1.267c3.261.93,5.414,1.545,10.172-1.2C183.119,705.231,184.281,703.456,185,701.25Zm1.955-6.54a24.182,24.182,0,0,0-1.328-2.66l-27.688-47.938a25.678,25.678,0,0,0-4.943-6.1c-2.431-2.351-4.351-4.209-4.35-10.122s1.921-7.773,4.353-10.127a25.659,25.659,0,0,0,4.945-6.105l27.688-47.938a23.865,23.865,0,0,0,1.59-3.3c-.285-.984-.514-1.875-.715-2.667a29.326,29.326,0,0,0-.919-3.144c-.82,1.935-2.248,3.727-5.628,5.677-5.125,2.958-7.7,2.224-10.95,1.3a25.669,25.669,0,0,0-7.762-1.229H105.87a25.645,25.645,0,0,0-7.758,1.229,15.7,15.7,0,0,1-4.4.816,12.927,12.927,0,0,1-6.549-2.113c-2.95-1.7-4.413-3.285-5.285-4.946-.114.412-.222.839-.334,1.289a34.206,34.206,0,0,1-1.144,3.829c.3,1,.656,2.1,1.129,3.338a34.5,34.5,0,0,0,5.031,9.489,70.73,70.73,0,0,1,4.166,6.42l18.458,31.958a25.631,25.631,0,0,0,4.943,6.1c2.431,2.352,4.351,4.209,4.35,10.122s-1.921,7.773-4.352,10.127a25.645,25.645,0,0,0-4.945,6.106L81.5,692.058a24.18,24.18,0,0,0-1.324,2.65,31.742,31.742,0,0,1,1.374,4.43c.113.452.222.882.337,1.3.87-1.663,2.333-3.245,5.285-4.949,5.126-2.958,7.7-2.224,10.95-1.3a25.676,25.676,0,0,0,7.762,1.229h55.376a25.649,25.649,0,0,0,7.758-1.229c3.253-.927,5.823-1.661,10.944,1.3a15.98,15.98,0,0,1,5.414,4.46c.068-.261.135-.527.2-.8A31.73,31.73,0,0,1,186.955,694.709Zm2.191,7.142c-.278-.788-.485-1.6-.7-2.468-.253-1.011-.525-2.089-.944-3.285-.421,1.2-.692,2.278-.946,3.29-.152.608-.3,1.192-.469,1.759a21.494,21.494,0,0,1,1.4,4.286c.1.4.209.82.322,1.25.259-.84.457-1.625.644-2.372C188.663,703.451,188.869,702.637,189.145,701.852Zm103.726-.6c-.918-1.657-2.431-3.1-5.542-4.893-4.753-2.743-6.906-2.13-10.165-1.2a26.887,26.887,0,0,1-8.035,1.267H213.754a26.9,26.9,0,0,1-8.038-1.267c-3.262-.931-5.416-1.545-10.172,1.2-3.326,1.919-4.589,3.559-5.331,5.5.743,1.934,2.009,3.574,5.331,5.492,4.752,2.744,6.907,2.129,10.165,1.2a26.888,26.888,0,0,1,8.035-1.267H269.12a26.9,26.9,0,0,1,8.038,1.267c3.26.93,5.415,1.544,10.172-1.2C290.992,705.231,292.154,703.455,292.872,701.249Zm1.956-6.54a24.22,24.22,0,0,0-1.328-2.66l-27.688-47.938a25.663,25.663,0,0,0-4.944-6.1c-2.431-2.351-4.35-4.209-4.349-10.122s1.921-7.773,4.352-10.127a25.644,25.644,0,0,0,4.946-6.105L293.5,563.717a23.856,23.856,0,0,0,1.589-3.3c-.285-.984-.514-1.875-.716-2.666a29.4,29.4,0,0,0-.918-3.144c-.82,1.935-2.248,3.727-5.628,5.677-5.125,2.957-7.694,2.224-10.95,1.3a25.677,25.677,0,0,0-7.763-1.229H213.744a25.655,25.655,0,0,0-7.759,1.229,15.694,15.694,0,0,1-4.4.816,12.927,12.927,0,0,1-6.548-2.113c-2.95-1.7-4.413-3.284-5.285-4.945-.114.412-.222.839-.334,1.288a34.344,34.344,0,0,1-1.144,3.829c.3,1.005.656,2.1,1.13,3.338a34.5,34.5,0,0,0,5.032,9.489,70.878,70.878,0,0,1,4.165,6.42l18.457,31.958a25.679,25.679,0,0,0,4.943,6.1c2.431,2.352,4.351,4.209,4.35,10.122s-1.921,7.773-4.352,10.127a25.676,25.676,0,0,0-4.946,6.106l-27.688,47.938a24.182,24.182,0,0,0-1.324,2.651,31.778,31.778,0,0,1,1.374,4.43c.114.452.222.882.337,1.3.87-1.663,2.333-3.246,5.286-4.949,5.127-2.959,7.7-2.224,10.95-1.3a25.683,25.683,0,0,0,7.763,1.229h55.376a25.66,25.66,0,0,0,7.759-1.229c3.251-.926,5.82-1.662,10.944,1.3a15.983,15.983,0,0,1,5.414,4.46c.068-.261.135-.527.2-.8A31.791,31.791,0,0,1,294.828,694.709Zm.848,11.974c.259-.84.456-1.624.644-2.371.216-.862.422-1.676.7-2.462-.278-.788-.485-1.6-.7-2.468-.254-1.011-.525-2.09-.945-3.285-.421,1.2-.692,2.278-.945,3.29-.152.608-.3,1.192-.469,1.759a21.481,21.481,0,0,1,1.4,4.286C295.456,705.835,295.563,706.253,295.676,706.683ZM6.257,638.014c2.431-2.353,4.351-4.211,4.352-10.127s-1.919-7.771-4.35-10.122a25.619,25.619,0,0,1-4.943-6.1L-1,607.654v2.01l1.445,2.5a26.858,26.858,0,0,0,5.114,6.321C8,620.844,9.6,622.4,9.6,627.888s-1.61,7.047-4.046,9.4a26.892,26.892,0,0,0-5.117,6.326L-1,646.112v2.01l2.311-4A25.691,25.691,0,0,1,6.257,638.014ZM.445,20.466A26.861,26.861,0,0,0,5.56,26.787C8,29.144,9.6,30.7,9.6,36.187s-1.61,7.047-4.046,9.405A26.871,26.871,0,0,0,.441,51.917L-1,54.411v2.01l2.311-4a25.69,25.69,0,0,1,4.945-6.106c2.431-2.353,4.352-4.211,4.353-10.127S8.69,28.417,6.26,26.065a25.644,25.644,0,0,1-4.943-6.1L-1,15.953v2.01Zm5.811,321.7c2.431-2.353,4.352-4.212,4.353-10.127s-1.919-7.77-4.35-10.121a25.655,25.655,0,0,1-4.943-6.1L-1,311.8v2.01l1.445,2.5a26.866,26.866,0,0,0,5.115,6.322C8,324.995,9.6,326.551,9.6,332.037s-1.611,7.047-4.047,9.406a26.879,26.879,0,0,0-5.116,6.324L-1,350.261v2.01l2.311-4A25.669,25.669,0,0,1,6.257,342.165Zm0,147.925c2.431-2.353,4.351-4.211,4.352-10.127s-1.919-7.77-4.35-10.122a25.638,25.638,0,0,1-4.943-6.1L-1,459.728v2.01l1.445,2.5a26.854,26.854,0,0,0,5.115,6.322C8,472.919,9.6,474.476,9.6,479.963s-1.61,7.047-4.046,9.4a26.891,26.891,0,0,0-5.117,6.325L-1,498.187v2.01l2.311-4A25.676,25.676,0,0,1,6.257,490.089Z" transform="translate(1 2)" fill="#d46a92"/>
</svg>
