<svg xmlns="http://www.w3.org/2000/svg" width="18.999" height="23.007" viewBox="0 0 18.999 23.007">
  <path id="Icon" d="M331.925,792.962h-.337l-.171-.006a2.723,2.723,0,0,1-.475-.054,18.814,18.814,0,0,1-2.771-.39l-.3-.062a4.719,4.719,0,0,1-3.533-2.19A3.3,3.3,0,0,1,324,788.81a3.234,3.234,0,0,1,.341-1.456,5.171,5.171,0,0,1,3.8-2.246,20.422,20.422,0,0,1,2.778-.382c.853-.073,1.72-.108,2.577-.108s1.724.036,2.577.108l.548.045a20.969,20.969,0,0,1,2.225.337c2.051.409,3.265,1.129,3.818,2.262a3.269,3.269,0,0,1,0,2.882c-.551,1.128-1.8,1.863-3.8,2.247l-.556.115a19.2,19.2,0,0,1-2.233.282c-.849.07-1.713.106-2.563.106C332.978,793,332.445,792.99,331.925,792.962Zm-.872-6.571a18.944,18.944,0,0,0-2.561.352,3.848,3.848,0,0,0-2.619,1.347,1.6,1.6,0,0,0-.166.719,1.636,1.636,0,0,0,.165.723c.3.607,1.217,1.072,2.646,1.343l.419.086a19,19,0,0,0,2.226.287,2.248,2.248,0,0,0,.341.038l.467.007c.51.027,1.029.04,1.544.04.805,0,1.622-.033,2.431-.1a17.5,17.5,0,0,0,2.568-.363l.267-.055c1.26-.277,2.07-.719,2.343-1.277a1.642,1.642,0,0,0,0-1.451c-.291-.595-1.2-1.061-2.624-1.345a19,19,0,0,0-2.556-.346h-.015c-.8-.068-1.617-.1-2.421-.1s-1.641.025-2.455.1Zm-3.86-10.294a6.313,6.313,0,1,1,6.3,6.151A6.222,6.222,0,0,1,327.193,776.1Zm1.713,0a4.6,4.6,0,1,0,4.592-4.481A4.533,4.533,0,0,0,328.906,776.1Z" transform="translate(-323.996 -769.996)" fill="#f0f3f8"/>
</svg>
