<svg xmlns="http://www.w3.org/2000/svg" width="12.333" height="12.208" viewBox="0 0 12.333 12.208">
  <path id="Path_298" data-name="Path 298" d="M13.643,5.591,10.419,2.367a1.862,1.862,0,0,0-2.553-.011l-5.5,5.409a1.793,1.793,0,0,0-.011,2.545l3.224,3.224a1.818,1.818,0,0,0,2.553.011l5.5-5.41a1.793,1.793,0,0,0,.011-2.545ZM12.789,7.28l-5.5,5.41a.633.633,0,0,1-.861,0l-.766-.766a1.2,1.2,0,0,0-1.691-1.692l-.766-.766a.592.592,0,0,1,0-.839l5.5-5.409a.617.617,0,0,1,.861,0l.766.766a1.2,1.2,0,0,0,1.691,1.691l.766.766a.591.591,0,0,1,0,.839ZM7.7,10.981l-2.8-2.8L8.3,4.921l2.8,2.8L7.7,10.981ZM5.762,8.191,7.711,10.14l2.527-2.428L8.291,5.763,5.762,8.191Z" transform="translate(-1.834 -1.856)" fill="#fff"/>
</svg>
