<svg xmlns="http://www.w3.org/2000/svg" width="22.507" height="24.206" viewBox="0 0 22.507 24.206">
  <path id="icon" d="M846.507,1365.445l-2.924,8.9-.1-.006a1.3,1.3,0,0,1-1.131.763h-9.146l.351,1.513h8.722a1.517,1.517,0,0,1,0,3.026h-9.844a1.462,1.462,0,0,1-1.407-1.513,1.564,1.564,0,0,1,.047-.25l-2.748-11.853h-.814v-.232a1.3,1.3,0,0,1-.7.232h-1.406a1.517,1.517,0,0,1,0-3.026h1.406a1.3,1.3,0,0,1,.7.232V1363h17.578a1.462,1.462,0,0,1,1.406,1.513,1.55,1.55,0,0,1-.312.911Zm-15.4.581,1.4,6.051h9.047l1.988-6.051Zm2.037,16.641a2.275,2.275,0,1,1-2.11,2.269A2.194,2.194,0,0,1,833.141,1382.667Zm8.437,0a2.275,2.275,0,1,1-2.109,2.269A2.194,2.194,0,0,1,841.578,1382.667Z" transform="translate(-824 -1363)" fill="rgba(255,255,255,0.5)"/>
</svg>
