<svg xmlns="http://www.w3.org/2000/svg" xmlns:xlink="http://www.w3.org/1999/xlink" width="20.113" height="42.1" viewBox="0 0 20.113 42.1">
  <defs>
    <linearGradient id="linear-gradient" x1="0.5" y1="0.026" x2="0.5" y2="0.978" gradientUnits="objectBoundingBox">
      <stop offset="0" stop-color="#6a4162"/>
      <stop offset="0.498" stop-color="#d46a92"/>
      <stop offset="1" stop-color="#f39db6"/>
    </linearGradient>
  </defs>
  <path id="Path_308" data-name="Path 308" d="M153.919,15.715h-6.525V11.937a4,4,0,0,0-3.178-3.9l-5.81-1.194a.676.676,0,1,0-.27,1.325l5.809,1.194a2.638,2.638,0,0,1,2.1,2.577v3.779h-5.849A3.158,3.158,0,0,0,137,18.831V45.785a3.18,3.18,0,0,0,3.194,3.142h13.725a3.18,3.18,0,0,0,3.194-3.142V18.831A3.158,3.158,0,0,0,153.919,15.715Zm-15.567,4.648h11.155V22.8a2.147,2.147,0,0,1-2.12,2.127h-.331a3.43,3.43,0,0,0-3.446,3.423,2.076,2.076,0,0,1-2.094,2.07h-3.165Zm0,11.409h3.165a3.43,3.43,0,0,0,3.446-3.423,2.076,2.076,0,0,1,2.094-2.07h.331a3.5,3.5,0,0,0,3.472-3.479V20.363h4.9V32.87h-3.33a3.43,3.43,0,0,0-3.446,3.423,2.076,2.076,0,0,1-2.094,2.07h-.331a3.481,3.481,0,0,0-3.476,3.453v2.463h-4.732Zm6.085,10.045a2.128,2.128,0,0,1,2.124-2.1h.331a3.43,3.43,0,0,0,3.446-3.423,2.076,2.076,0,0,1,2.094-2.07h3.33V44.279H144.437Zm-4.243-24.749h13.725a1.8,1.8,0,0,1,1.842,1.763v.18H138.352v-.18A1.8,1.8,0,0,1,140.194,17.067Zm13.725,30.508H140.194a1.826,1.826,0,0,1-1.842-1.79v-.154h17.409v.154A1.826,1.826,0,0,1,153.919,47.575Z" transform="translate(-137 -6.827)" fill="url(#linear-gradient)"/>
</svg>
